<?xml version="1.0" encoding="UTF-8" standalone="no"?>
<!-- Created with Inkscape (http://www.inkscape.org/) -->

<svg
   xmlns:dc="http://purl.org/dc/elements/1.1/"
   xmlns:cc="http://creativecommons.org/ns#"
   xmlns:rdf="http://www.w3.org/1999/02/22-rdf-syntax-ns#"
   xmlns:svg="http://www.w3.org/2000/svg"
   xmlns="http://www.w3.org/2000/svg"
   xmlns:sodipodi="http://sodipodi.sourceforge.net/DTD/sodipodi-0.dtd"
   xmlns:inkscape="http://www.inkscape.org/namespaces/inkscape"
   version="1.1"
   id="svg3767"
   width="412"
   height="367"
   viewBox="0 0 412 367"
   sodipodi:docname="snek.svg"
   inkscape:version="0.92.2 2405546, 2018-03-11">
  <metadata
     id="metadata3773">
    <rdf:RDF>
      <cc:Work
         rdf:about="">
        <dc:format>image/svg+xml</dc:format>
        <dc:type
           rdf:resource="http://purl.org/dc/dcmitype/StillImage" />
        <dc:title></dc:title>
      </cc:Work>
    </rdf:RDF>
  </metadata>
  <defs
     id="defs3771" />
  <sodipodi:namedview
     pagecolor="#ffffff"
     bordercolor="#666666"
     borderopacity="1"
     objecttolerance="10"
     gridtolerance="10"
     guidetolerance="10"
     inkscape:pageopacity="0"
     inkscape:pageshadow="2"
     inkscape:window-width="2560"
     inkscape:window-height="1411"
     id="namedview3769"
     showgrid="false"
     inkscape:zoom="2"
     inkscape:cx="125.10651"
     inkscape:cy="220.0454"
     inkscape:window-x="0"
     inkscape:window-y="0"
     inkscape:window-maximized="1"
     inkscape:current-layer="g3809"
     showguides="true"
     inkscape:guide-bbox="true">
    <sodipodi:guide
       position="258.81461,334.50568"
       orientation="0,1"
       id="guide4780"
       inkscape:locked="false" />
  </sodipodi:namedview>
  <g
     id="g3809"
     transform="translate(30.660759,109.32574)">
    <path
       style="fill:#eb4f55;stroke:#ff0000;stroke-width:5.9000001;stroke-miterlimit:4;stroke-dasharray:none;stroke-opacity:1"
       d="m 48.36852,53.836394 c -3.77424,-2.2755 -5.44264,-2.5901 -14.5,-2.7342 -10.16869,-0.16178 -15.09758,-1.20088 -21.66036,-4.56638 -2.6305698,-1.349 -3.7229198,-2.77672 -4.7078698,-6.15329 -0.97271,-3.33458 -2.62597,-5.52602 -6.84366004,-9.07144 -3.05860996,-2.57109 -6.87146996,-4.96252 -8.47302036,-5.31428 -3.4767598,-0.76362 -5.4939798,-2.91189 -4.6933698,-4.99827 0.4285,-1.11666 2.14424,-1.51274 6.5528602,-1.51274 3.28481,0 6.21654996,-0.39509 6.51497996,-0.87797 0.72679994,-1.17597 -6.37012996,-5.79273 -10.56833016,-6.87501 -2.3134,-0.59639 -3.45341,-1.52973 -3.66894,-3.0038203 -0.37334,-2.55331 5.3993402,-5.9175202 13.31269016,-7.75838021 4.69596004,-1.0924 4.98309004,-1.34014 4.72190004,-4.07397999 -0.15295,-1.60096 -0.61078,-8.2275005 -1.0174,-14.7256295 l -0.7393001,-11.8148 -4.6987899,-4.37641 c -4.63602,-4.31796 -6.27523,-7.58824 -5.5963404,-11.16491 0.4815,-2.5367 7.62890036,-3.00153 11.9325404,-0.77604 2.79853,1.44718 5.23458,2.02157 15.3969098,3.6304 1.45358,0.23012 2.09029,-0.3237 2.33199,-2.0284 0.53879,-3.80006 -1.68274,-7.71653 -6.84712,-12.07121 -5.5489398,-4.67893 -11.2288598,-12.56327 -10.7753698,-14.95737 0.40751,-2.15134 4.99098,-2.61038 10.5430898,-1.05588 11.53699,3.23016 22.44602,12.08926 26.44455,21.47532 0.92646,2.17475 2.58592,6.09159 3.68768,8.70409 2.32011,5.50146 5.06476,6.28352 7.73732,2.20467 1.43496,-2.19002 1.49644,-3.13225 0.44048,-6.75 -0.67501,-2.31257 -2.54013,-5.86579 -4.14471,-7.89603 -9.13996,-11.56461 4.69994,-8.43305 18.418991,4.16767 l 3.836416,3.52369 -0.336416,13.5 c -0.376202,15.09651 -0.804364,14.39975 7.075353,11.51405 5.382621,-1.97122 9.448691,-1.65955 9.907521,0.75942 0.18502,0.97541 -0.59863,3.70498 -1.74145,6.06572 -1.14281,2.360739 -2.07784,6.1144895 -2.07784,8.3416695 0,2.38828 -0.75061,5.02773 -1.82978,6.43427999 -3.108197,4.05108001 -3.247036,5.82149001 -1.02916,13.12335051 2.10652,6.93525 2.11261,7.15478 0.33577,12.09601 -1.80299,5.01396 -1.80167,5.03787 0.35675,6.471 3.64834,2.42241 2.81655,6.38649 -2.44389,11.64693 -2.535674,2.53567 -6.023174,5.32301 -7.750003,6.19408 -1.726828,0.87108 -4.184803,2.88197 -5.462166,4.46864 -2.077005,2.57995 -2.922559,2.88074 -7.999996,2.84584 -4.27797,-0.0294 -6.72888,-0.67288 -9.94251,-2.61039 z"
       id="path3817"
       inkscape:connector-curvature="0"
       inkscape:export-xdpi="960"
       inkscape:export-ydpi="960" />
    <path
       id="path3815"
       style="fill:#46cc6d;stroke:#009e00;stroke-opacity:1;stroke-width:5.9;stroke-miterlimit:4;stroke-dasharray:none"
       d="m 332.46615,-78.111306 c -1.96881,-0.16606 -3.74825,2.6569 -5.90039,8.52344 -1.375,3.74813 -3.00906,6.985 -3.63086,7.1914 -0.63597,0.21111 -1.43924,-1.2702 -1.83594,-3.38476 -0.91244,-4.86376 -3.23998,-9.32813 -4.86328,-9.32813 -1.57183,0 -6.5809,5.16934 -10.07031,10.39063 -3.23891,4.84644 -3.51334,12.9966 -0.69922,20.82226 2.65684,7.38824 3.49724,13.787112 1.81055,13.787112 -1.77683,0 -3.7098,-2.053972 -3.7168,-3.949222 -0.0176,-4.87801 -2.62214,-9.7981 -8.50195,-16.05859 -3.48899,-3.71488 -7.73478,-9.50775 -9.4336,-12.87305 -2.19308,-4.34446 -3.65421,-6.11914 -5.03906,-6.11914 -3.17379,0 -4.02124,3.22227 -3.99804,15.18555 0.0259,13.34159 1.5108,17.69373 7.71484,22.607422 6.44297,5.10293 8.22252,12.22621 3.04492,12.19141 -3.07343,-0.0206 -4.19752,-0.88887 -6.19922,-4.79492 -1.26234,-2.46328 -2.26013,-3.23203 -3.89062,-3 -1.98582,0.28261 -2.21841,0.97306 -2.48047,7.33789 -0.23081,5.60601 0.23319,8.41576 2.29687,13.8984296 1.42262,3.77957 3.24009,7.80461 4.03907,8.94532 1.78061,2.54217 1.91226,7.5768804 0.20312,7.7753904 -0.6875,0.0799 -3.5,0.1924 -6.25,0.25 -4.8281,0.10122 -5.01006,0.21035 -5.30078,3.18945 -0.35869,3.67577 1.03296,5.02964 6.92773,6.73633 3.13902,0.90884 4.95619,2.22013 6.53907,4.71875 4.67963,7.38693 7.20885,9.59555 14.02343,12.24219 3.74556,1.45469 8.75836,3.07046 11.13868,3.59179 2.38033,0.52132 4.59217,1.21327 4.91601,1.53711 0.32384,0.32384 2.20104,0.58693 4.17188,0.58594 3.70098,-0.002 17.68116,-6.57992 25.74218,-12.11328 7.34105,-5.03915 10.18016,-12.1479 6.86915,-17.20117 -1.33322,-2.03475 -1.2301,-2.84427 1.08984,-8.5878904 1.61139,-3.98938 2.87593,-9.69784 3.41016,-15.39258 0.8328,-8.8781196 0.96035,-9.2139496 6.66015,-17.4082096 10.07734,-14.487612 13.15391,-20.335602 14.78125,-28.109372 2.59427,-12.39279 1.83608,-13.71874 -6.11133,-10.68359 -5.83412,2.22807 -10.54579,6.37391 -12.72656,11.19921 -1.55717,3.44548 -3.36917,5.10524 -11.51758,10.54493 -5.21759,3.48314 -6.87138,1.33315 -4.44726,-5.78125 2.18704,-6.41862 1.32205,-13.10559 -2.72657,-21.08204 -2.41838,-4.76454 -4.30187,-7.23824 -6.03906,-7.38476 z"
       inkscape:connector-curvature="0"
       inkscape:export-xdpi="960"
       inkscape:export-ydpi="960" />
    <g
       id="g3893"
       transform="translate(-15.19247,-100.92142)"
       inkscape:export-xdpi="960"
       inkscape:export-ydpi="960">
      <path
         inkscape:connector-curvature="0"
         id="path3819"
         d="m 147.5,350.98243 c -2.2,-0.43914 -7.4875,-2.38923 -11.75,-4.33354 -8.84326,-4.03379 -9.00193,-4.42222 -6.20017,-15.1789 1.94449,-7.46538 6.3903,-14.46761 12.21725,-19.24235 l 4.50859,-3.69446 14.79774,0.29808 c 8.13876,0.16394 16.2104,0.47685 17.93697,0.69537 2.62269,0.33192 8.57961,-0.68529 24.48962,-4.18187 1.42813,-0.31386 3.90644,1.39565 8.66735,5.97863 7.38343,7.10749 13.41553,10.49665 20.48097,11.50732 7.06958,1.01126 6.54762,2.73807 -2.00584,6.63601 -4.14433,1.88863 -9.24679,4.55139 -11.33881,5.91724 -6.07235,3.96456 -22.7984,10.3124 -35.80367,13.58813 -9.67377,2.4366 -13.93852,3.00181 -22,2.91565 -5.5,-0.0588 -11.8,-0.46617 -14,-0.90531 z m 92.5,-6.12167 c -10.175,-0.35158 -19.85,-1.06699 -21.5,-1.58981 l -3,-0.95059 3.5,-2.19092 c 1.925,-1.20501 7.55,-4.14365 12.5,-6.5303 4.95,-2.38666 12.15,-6.76777 16,-9.7358 l 7,-5.39642 11.5,0.0165 11.5,0.0165 0.31183,3.77464 c 0.1941,2.34941 -0.90975,7.35239 -2.92343,13.25 L 271.65313,345 l -4.07657,0.15622 c -2.24211,0.0859 -5.20156,0.19843 -6.57656,0.25 -1.375,0.0516 -10.825,-0.19388 -21,-0.54546 z m 57.31257,-6.23291 c 1.38588,-3.61157 1.72437,-10.70316 0.76978,-16.12785 -0.5807,-3.3 -1.17429,-6.86722 -1.31908,-7.92716 -0.19454,-1.42402 1.26577,-2.79468 5.59337,-5.25 3.22115,-1.82756 6.46326,-3.32284 7.20469,-3.32284 0.77916,0 1.61371,1.58252 1.97756,3.75 0.34624,2.0625 1.09818,5.27811 1.67099,7.14579 1.4135,4.6089 0.39227,14.78136 -1.71803,17.11322 -3.69493,4.08285 -15.44199,7.9094 -14.17928,4.61884 z M 106.43841,311.43787 c -0.37627,-2.50917 -0.17884,-8.50214 0.43873,-13.31772 C 107.49471,293.30457 108,287.08691 108,284.30312 c 0,-7.77055 7.33207,-22.58944 15.40608,-31.13731 7.80768,-8.2659 16.52863,-11.12482 35.822,-11.74323 7.00045,-0.22438 13.07545,-0.46455 13.5,-0.5337 0.42456,-0.0692 2.81986,-0.0724 5.3229,-0.007 l 4.55098,0.11842 1.30885,7.36627 c 1.30963,7.37066 1.01452,10.32985 -1.41585,14.19733 -1.17947,1.87689 -1.826,1.98741 -7.14588,1.22152 -3.21699,-0.46315 -10.19131,-1.10479 -15.49847,-1.42587 -9.49019,-0.57415 -9.75098,-0.52963 -15.80744,2.69842 -4.66792,2.48798 -6.80959,4.39049 -8.85061,7.86227 -2.5446,4.32839 -2.69091,5.27269 -2.66244,17.18471 l 0.0301,12.60464 -5.98522,2.37732 c -3.29187,1.30753 -8.59418,4.29794 -11.78293,6.64536 -3.18874,2.34742 -6.21887,4.26803 -6.73363,4.26803 -0.51475,0 -1.24377,-2.05296 -1.62005,-4.56213 z M 259.75,314.28375 c -3.2558,-0.49322 -3.34594,-1.37364 -0.73075,-7.1369 1.08643,-2.39423 2.43127,-7.20723 2.98853,-10.69555 0.55726,-3.48833 1.26048,-6.98681 1.56271,-7.7744 0.54987,-1.43294 17.95407,-7.96598 26.42951,-9.92088 l 4.5,-1.03794 6.05007,5.89096 c 3.32754,3.24003 7.0933,7.60526 8.36837,9.70051 l 2.31829,3.80956 -2.34618,2.4974 c -4.00633,4.26454 -11.97706,8.0933 -22.39055,10.75534 -10.34622,2.64485 -21.07377,4.73965 -22.93366,4.47832 -0.58649,-0.0824 -2.30384,-0.3373 -3.81634,-0.56642 z M 155.12225,304.43554 C 139.49834,303.27882 138,302.626 138,296.97554 c 0,-3.73836 0.58847,-3.98636 5.83695,-2.45989 2.56468,0.74591 8.48805,1.66973 13.16305,2.05292 8.19943,0.67209 14.08382,2.70962 19.45071,6.73501 1.82182,1.36644 1.65666,1.48733 -2.5,1.82976 -2.44789,0.20166 -10.9207,-0.11235 -18.82846,-0.6978 z M 184.5,301.59345 c -2.2,-0.70002 -7.2625,-2.92557 -11.25,-4.94568 -6.30905,-3.19622 -7.25462,-4.02819 -7.28562,-6.41034 -0.0196,-1.50559 -0.61603,-5.21243 -1.32542,-8.23743 -1.35455,-5.77615 -1.08206,-13.60811 0.50764,-14.5906 1.09711,-0.67806 22.41998,9.95813 25.36705,12.65348 3.10907,2.84353 8.93919,4.92635 15.10061,5.39473 3.08142,0.23425 5.8509,0.67421 6.15438,0.9777 0.8372,0.83719 -1.75689,8.8296 -3.5033,10.79373 -2.15383,2.42234 -11.6146,5.78404 -16.05285,5.70406 -2.04187,-0.0368 -5.51249,-0.63963 -7.71249,-1.33965 z m 53.1563,-0.0832 c -2.66404,-0.74297 -8.67822,-3.19078 -13.36485,-5.43958 -9.65803,-4.63425 -9.31844,-3.55623 -4.90503,-15.57068 3.07418,-8.36871 3.40511,-17.31319 0.93096,-25.16211 C 219.39194,252.40205 218.31138,250 217.91615,250 217.26903,250 213,243.4676 213,242.47739 c 0,-0.22457 3.7125,-2.84455 8.25,-5.82219 10.63065,-6.97614 28.16042,-15.91604 30.36914,-15.48777 0.94332,0.18291 2.13514,1.68257 2.64848,3.33257 0.51334,1.65 1.95928,5.7 3.21318,9 4.14131,10.89896 5.31175,39.98297 2.19327,54.5 -3.49009,16.247 -2.25755,14.47447 -10.20826,14.68055 -3.8312,0.0993 -9.14548,-0.42733 -11.80951,-1.17029 z m 28.28353,-20.24121 c -0.19603,-2.50546 0.23281,-21.77502 0.49032,-22.03254 0.56044,-0.56044 13.97088,6.5332 18.31985,9.69055 4.59133,3.33329 5.24468,4.82043 2.5,5.69041 -0.9625,0.30508 -4.9,1.80513 -8.75,3.33344 -8.22305,3.26425 -12.47647,4.38792 -12.56017,3.31814 z m -58.9672,-4.70682 c -7.52321,-2.62856 -12.97448,-5.29269 -12.96844,-6.33791 0.002,-0.39838 1.1273,-2.93809 2.5,-5.6438 C 198.30873,261.0236 199,258.0625 199,253.88954 c 0,-3.17433 0.34746,-5.98625 0.77214,-6.24872 0.42468,-0.26246 3.66534,0.27928 7.20148,1.20387 5.44986,1.42498 6.73195,2.19923 8.41573,5.08227 3.74565,6.41344 3.12378,23.66063 -0.88935,24.6655 -0.55,0.13771 -3.93732,-0.77589 -7.52737,-2.03023 z M 188,221 c -3.575,-1.6192 -6.95,-2.95886 -7.5,-2.97703 -0.55,-0.0182 -3.25,-1.81588 -6,-3.99491 -2.75,-2.17902 -6.8,-4.92657 -9,-6.10566 -5.71062,-3.06062 -18.82529,-16.96215 -25.43378,-26.95977 -10.41392,-15.75465 -15.07808,-31.4338 -13.11485,-44.08716 1.07184,-6.90816 5.24314,-26.75006 9.01357,-42.87547 1.51501,-6.479421 1.99312,-12.115951 2.01126,-23.711275 0.0272,-17.36469 1.93919,-27.871308 7.03474,-38.656049 5.23861,-11.087534 12.77144,-17.372321 27.28708,-22.76614 8.12053,-3.017478 8.36088,-3.043674 24.20198,-2.6377755 14.96316,0.3834028 16.61562,0.623845 25.5,3.710385 5.225,1.8152285 11.08837,4.1050875 13.02971,5.0885765 4.83858,2.451236 12.07997,8.61418 16.11452,13.714606 7.16435,9.057095 8.19366,10.547178 11.09592,16.063045 1.64797,3.132045 3.60246,6.834682 4.3433,8.228083 C 270.39957,60.210951 271.5,68.149145 271.5,88.5 c 0,17.82814 -0.25691,20.97734 -2.36584,29 -3.12359,11.88257 -6.85003,19.02516 -12.85754,24.64448 -9.50946,8.89499 -16.60934,12.03517 -31.25039,13.82159 -12.22259,1.49134 -18.58283,1.28945 -29.94788,-0.95063 -13.52687,-2.66617 -16.2894,-3.9813 -22.56085,-10.74031 -19.20368,-20.69662 -25.35434,-34.94629 -21.57172,-49.976723 1.04094,-4.136232 7.40662,-15.979446 13.08656,-24.34727 4.98863,-7.349375 10.61049,-21.833573 9.54855,-24.600949 -0.97357,-2.537066 -3.23411,0.07909 -5.16436,5.976773 -1.81574,5.547805 -4.51173,10.91103 -9.88926,19.673039 -11.25097,18.332048 -12.97346,23.365611 -12.28563,35.90172 0.52722,9.60876 2.89301,16.20973 7.82127,21.82271 1.65228,1.88184 4.17622,5.30119 5.60877,7.59855 4.60867,7.39089 13.20606,16.44098 17.58918,18.51535 2.33153,1.10342 7.55404,2.50341 11.60558,3.11108 10.8364,1.6253 11.50757,2.15123 10.71833,8.39881 -1.97035,15.597 -1.96998,15.65178 0.10794,15.65178 1.95557,0 2.52702,-1.93549 4.81118,-16.2952 0.69851,-4.39124 3.89815,-6.22716 9.13915,-5.24394 3.48096,0.65303 4.35696,2.05669 4.35696,6.98138 0,1.92857 1.10781,4.88031 2.69029,7.16821 1.47967,2.13925 5.14995,7.48955 8.1562,11.88955 3.00625,4.4 6.35623,9.20502 7.4444,10.67781 2.72355,3.68623 1.76743,5.24721 -4.45449,7.27254 -6.6262,2.15692 -20.34056,9.49299 -28.46339,15.22559 -3.36985,2.37823 -6.74485,4.31146 -7.5,4.29606 C 195.11785,223.9566 191.575,222.6192 188,221 Z m 67.04182,-111.07814 c 1.3262,-2.47803 0.5659,-5.09229 -1.27548,-4.38569 -1.81438,0.69624 -3.9604,4.34082 -3.2412,5.50451 1.0119,1.63729 3.35186,1.05767 4.51668,-1.11882 z M 183.84378,96.439086 c -0.45776,-2.361293 -2.68652,-3.012485 -3.45513,-1.009509 -0.76967,2.00574 1.55545,5.026323 2.86275,3.719024 0.51489,-0.514889 0.78146,-1.734171 0.59238,-2.709515 z"
         style="fill:#ddd209" />
      <path
         inkscape:connector-curvature="0"
         id="path3813"
         d="m 149,355.91358 c -4.7887,-0.92293 -5.02666,-1.01404 -23.5,-8.99804 -13.705,-5.92316 -15.57532,-7.32778 -18.32733,-13.76393 -4.47154,-10.45763 -5.53203,-19.45213 -4.5116,-38.26519 L 103.60412,277.5 107.75673,269 c 5.04808,-10.33295 10.04479,-16.99912 16.97422,-22.64549 7.78484,-6.34338 15.31063,-8.37868 35.26905,-9.53824 20.22932,-1.17531 26.05232,-0.66516 35.29365,3.09204 10.04174,4.08263 12.15567,4.64156 11.15265,2.94882 C 204.36675,239.34762 192.59254,227 191.32555,227 c -0.78612,0 -3.09347,-0.87322 -5.12743,-1.94048 -2.03397,-1.06726 -5.22083,-2.4968 -7.08192,-3.17674 -1.86108,-0.67994 -5.46108,-2.86608 -8,-4.85807 -2.53891,-1.992 -7.35385,-5.27458 -10.69986,-7.29462 -10.67955,-6.44742 -25.70281,-26.11091 -32.91582,-43.08251 -6.47992,-15.2467 -6.85299,-21.60473 -2.53179,-43.14758 1.76517,-8.8 4.29431,-20.21176 5.62033,-25.359476 C 132.62909,90.220957 133,86.404133 133,73.330987 c 0,-17.513478 2.61583,-32.240868 7.59397,-42.754863 3.29504,-6.959238 10.64743,-15.239145 17.35297,-19.542074 6.1468,-3.9443911 19.29311,-9.0720363 22.86675,-8.9190509 2.30463,0.09866 2.18902,0.2145642 -0.81369,0.8157527 -5.68365,1.1379536 -17.10474,6.0540636 -22.76229,9.7978292 -9.88449,6.540857 -17.10828,17.528917 -19.82415,30.154408 C 136.63069,46.522345 135.55312,51.3 135.01894,53.5 c -0.53417,2.2 -0.98196,11.038236 -0.99508,19.640524 -0.0202,13.222645 -0.39657,17.087411 -2.4348,25 -1.32602,5.147716 -3.85471,16.559476 -5.61933,25.359476 -4.20581,20.97408 -3.86639,27.11121 2.34023,42.31386 6.89125,16.87957 22.22236,36.85503 33.37372,43.48382 3.74898,2.22853 8.56929,5.53494 10.71181,7.34756 2.14253,1.81263 5.4833,3.81971 7.42395,4.46019 9.33877,3.08207 14.1887,6.1708 21.07882,13.42431 10.69707,11.26123 9.54457,12.88964 -4.89826,6.9209 -10.53284,-4.35288 -15.22748,-4.83165 -36,-3.67139 -13.4852,0.75322 -17.8118,1.38294 -23.67949,3.44645 -12.3525,4.34405 -20.25886,12.75484 -28.34694,30.15547 -3.764,8.09784 -3.7755,8.16279 -4.44812,25.11883 -0.54272,13.68122 -0.37117,18.28139 0.87874,23.56376 3.59155,15.17863 6.21015,19.58207 13.26103,22.29976 2.65913,1.02493 8.43478,3.45049 12.83478,5.39012 4.4,1.93964 9.47045,4.16344 11.26767,4.94179 4.33308,1.87659 13.29011,3.29163 20.88086,3.29878 6.17885,0.006 32.34842,-5.93256 37.35147,-8.47577 1.91375,-0.97282 5.19676,-1.0593 14,-0.36877 33.75628,2.64785 71.09581,1.89701 81.5,-1.63883 7.35009,-2.49791 17.13022,-7.44475 19.166,-9.69427 3.39233,-3.74848 2.98953,-17.62814 -0.90166,-31.06964 -1.03952,-3.59085 -0.91293,-3.95783 2.92914,-8.4908 2.67215,-3.15266 6.48315,-5.99514 11.39098,-8.49607 9.25256,-4.71492 13.86232,-9.03088 12.30284,-11.51872 -0.60036,-0.95774 -2.1376,-1.89556 -3.41609,-2.08404 -1.2785,-0.18849 -3.25754,-0.93721 -4.39787,-1.66382 -3.05488,-1.94656 -16.81243,-3.86218 -22.71591,-3.163 -2.82019,0.33401 -7.08585,1.35515 -9.47925,2.26919 -3.73375,1.42593 -4.61936,1.46585 -6.23726,0.28112 -1.0371,-0.75944 -4.30558,-3.2139 -7.26328,-5.45436 -2.9577,-2.24046 -8.75264,-5.77699 -12.87764,-7.85895 -4.125,-2.08196 -8.0625,-4.24146 -8.75,-4.79888 -0.7458,-0.60469 -1.26388,-3.48511 -1.28442,-7.14104 -0.0246,-4.37438 -0.88186,-8.27342 -2.99633,-13.62756 -1.62904,-4.125 -2.96355,-8.4244 -2.96558,-9.55422 -0.004,-2.13759 -4.98226,-10.69648 -6.91751,-11.89253 -0.61017,-0.3771 -2.73916,-3.24335 -4.73109,-6.36945 -1.99194,-3.12609 -5.31103,-7.71072 -7.37577,-10.18807 -2.06474,-2.47735 -5.41133,-7.20235 -7.43688,-10.5 -2.02554,-3.29765 -5.22622,-8.18409 -7.11261,-10.85874 C 221.80463,169.91483 221,167.76167 221,164.45894 v -4.31503 l 5.75,-0.71753 c 13.7455,-1.71527 25.9137,-8.09847 34.54109,-18.11955 5.9268,-6.88425 7.52546,-9.92195 9.89749,-18.80683 4.99497,-18.70958 6.16329,-37.383501 3.31592,-53 -1.60162,-8.784162 -3.99302,-17.163504 -5.39136,-18.891054 -0.49369,-0.60992 -2.53453,-4.209118 -4.5352,-7.998217 -2.92539,-5.540427 -9.66817,-14.907281 -14.33252,-19.910272 -3.43149,-3.680631 -13.31033,-10.890228 -16.18404,-11.811148 -1.95876,-0.627711 -5.4997,-2.0076075 -7.86877,-3.0664369 -2.36906,-1.0588293 -8.21906,-2.7686152 -13,-3.7995241 C 208.41168,2.992439 205.625,2.1223592 207,2.0898373 c 3.68518,-0.087163 16.52325,3.4180132 24.23425,6.6166752 14.49957,6.0146765 27.0216,19.0326695 37.04233,38.5094785 6.1121,11.879774 8.72342,24.062287 8.72342,40.69703 0,16.285069 -3.66829,35.552059 -8.63491,45.353209 -7.11548,14.04172 -23.25017,24.61599 -41.61509,27.27351 -4.38186,0.63408 -4.75,0.90601 -4.75,3.5087 0,4.00818 1.51733,7.50132 5.56858,12.81977 1.94051,2.54749 5.28149,7.33179 7.4244,10.63179 3.6695,5.65087 6.24356,9.15817 17.76029,24.19937 2.98133,3.8937 5.35597,8.35673 6.38481,12 0.90095,3.19035 2.58845,8.37689 3.75,11.52565 1.27304,3.45096 2.11192,8.09356 2.11192,11.68791 v 5.9629 l 8.24271,4.12561 c 4.53348,2.26908 11.53573,6.54244 15.56054,9.49636 l 7.31785,5.37076 4.18945,-1.49675 c 9.35731,-3.34304 22.76543,-2.53717 35.90621,2.15807 9.29387,3.32072 7.12889,8.14776 -7.14532,15.93117 -11.48317,6.26151 -15.56393,11.02984 -14.15414,16.53895 2.50341,9.78264 3.0827,13.66674 3.0827,20.66919 0,7.57442 -0.0336,7.67242 -3.88223,11.33356 -2.49115,2.36977 -7.23891,5.0436 -13.25,7.46208 -8.12675,3.26969 -11.02374,3.89684 -21.86777,4.73402 -13.26902,1.02439 -47.1991,0.48339 -65.5,-1.04438 -9.75642,-0.81447 -11.40094,-0.71496 -14.54651,0.88014 -1.95059,0.98913 -5.32559,2.10801 -7.5,2.48641 -2.17442,0.3784 -7.75904,1.76597 -12.41026,3.08349 -8.94655,2.53423 -20.96846,3.05806 -30.04323,1.30907 z m 124,-11.97091 c 0,-0.44343 1.3903,-4.54943 3.08956,-9.12445 2.41299,-6.49663 2.9737,-9.33372 2.56047,-12.95546 l -0.52909,-4.63723 4.18953,-1.51495 c 2.30424,-0.83323 5.53953,-1.75246 7.18953,-2.04274 1.65,-0.29028 3.69107,-0.79543 4.53571,-1.12257 1.00099,-0.38769 1.59843,0.0232 1.71583,1.17997 0.0991,0.97612 0.69758,5.14642 1.33004,9.26733 0.8538,5.56308 0.86177,8.74095 0.031,12.34027 -0.61544,2.66623 -0.89825,5.20485 -0.62847,5.64137 0.92456,1.49596 -4.98821,2.87758 -14.23406,3.32604 -5.0875,0.24676 -9.25,0.0858 -9.25,-0.35758 z M 121.0378,340.3433 c -8.70991,-3.85474 -8.46131,-3.46205 -13.66985,-21.5933 -0.2765,-0.9625 -0.003,-1.75 0.60757,-1.75 0.61066,0 3.46275,-1.77612 6.33796,-3.94693 2.87522,-2.17081 8.45913,-5.32204 12.40868,-7.00272 l 7.181,-3.05579 3.68797,2.50272 c 2.02838,1.3765 4.30017,2.50272 5.04842,2.50272 2.22651,0 1.57006,1.3327 -2.0981,4.25953 -6.80733,5.43158 -11.66773,14.87828 -13.34932,25.94583 L 126.5,342.76071 Z m 117.64944,-16.98939 c -0.35535,-0.35535 -2.95579,-1.01121 -5.77876,-1.45746 -8.31526,-1.31447 -19.05341,-8.07814 -24.11874,-15.19174 l -2.12536,-2.98479 2.72634,-1.986 c 1.49948,-1.0923 3.39817,-3.66507 4.21929,-5.71725 l 1.49295,-3.73125 6.19852,3.27592 c 9.07113,4.79409 18.17389,7.6076 26.90094,8.31464 l 7.70243,0.62402 -3.20243,6.5 c -3.78757,7.68769 -11.70364,14.66544 -14.01518,12.35391 z M 151,294.89071 c -3.025,-0.46588 -7.3,-1.20064 -9.5,-1.63279 l -4,-0.78573 -0.29642,-7.36536 c -0.26359,-6.54976 -0.0116,-7.77641 2.27597,-11.07732 3.12904,-4.51521 9.88435,-7.72797 17.52045,-8.33257 6.4073,-0.5073 8.50754,-0.022 7.14268,1.65031 -1.55399,1.90409 -1.64312,8.71647 -0.21304,16.28233 0.74119,3.92127 1.05167,8.30877 0.68994,9.75 -0.57115,2.27565 -1.14856,2.60317 -4.38863,2.4893 -2.05202,-0.0721 -6.20595,-0.51229 -9.23095,-0.97817 z M 309.59942,292.75 c -1.00749,-1.7875 -4.30019,-5.58797 -7.31711,-8.4455 -3.01692,-2.85752 -5.29391,-5.78252 -5.05997,-6.5 1.88105,-5.76907 30.67809,-6.28165 37.44394,-0.6665 2.04538,1.69752 -0.62811,4.22676 -8.29865,7.85092 -3.47581,1.64224 -8.01795,4.79082 -10.09365,6.99684 -2.07569,2.20602 -4.01446,4.01169 -4.30837,4.0126 -0.29392,9e-4 -1.3587,-1.46086 -2.36619,-3.24836 z M 199.72286,280.99327 c -1.52742,-0.45915 -5.12742,-2.38912 -8,-4.28882 -2.87257,-1.8997 -6.79786,-4.40867 -8.72286,-5.57549 -1.925,-1.16682 -2.99408,-2.12317 -2.37573,-2.12522 2.24098,-0.007 9.24478,2.88862 13.51148,5.58699 2.40034,1.51804 6.14102,3.28645 8.31263,3.92981 2.17161,0.64335 4.12161,1.68942 4.33333,2.32459 0.44113,1.32339 -2.91493,1.39382 -7.05885,0.14814 z M 197.5,278 c -0.33992,-0.55 -1.06803,-1 -1.61803,-1 -0.55,0 -0.72189,0.45 -0.38197,1 0.33992,0.55 1.06803,1 1.61803,1 0.55,0 0.72189,-0.45 0.38197,-1 z m -10.92486,-10.56694 c -2.15867,-0.79719 -4.06436,-1.58895 -4.23488,-1.75946 -0.17051,-0.17052 0.61253,-2.07933 1.7401,-4.24181 2.06939,-3.96875 2.09317,-5.12541 0.33276,-16.18316 l -0.67683,-4.25137 3.38186,0.6109 c 1.86002,0.33599 5.18967,1.45108 7.39924,2.47797 l 4.01739,1.86707 -0.57721,7.85538 c -0.59757,8.13246 -3.16901,14.49696 -6.01171,14.87941 -0.79522,0.10698 -3.21204,-0.45773 -5.37072,-1.25493 z m 21.99914,-29.18309 c -1.60914,-2.06248 -4.42469,-5.02274 -6.25676,-6.57835 -6.12544,-5.20109 -6.0588,-5.9736 0.94101,-10.90851 8.17555,-5.7638 20.31731,-12.31669 28.59339,-15.43179 3.6476,-1.37296 6.92013,-2.96249 7.2723,-3.53231 0.35216,-0.56982 2.4748,1.6048 4.71697,4.83248 2.24217,3.22768 4.98515,6.99351 6.09551,8.36851 2.93456,3.63399 2.58401,4.52942 -2.53919,6.48599 -7.14743,2.72963 -18.0937,8.73211 -27.165,14.89616 -4.54711,3.08982 -8.37211,5.61784 -8.5,5.61782 -0.12788,-2e-5 -1.54908,-1.68752 -3.15823,-3.75 z"
         style="fill:#4d72a0" />
      <g
         id="g3887">
        <path
           style="fill:#48472f"
           d="m 149.85854,354.98081 c -2.5528,-0.43118 -6.1528,-1.4402 -8,-2.24226 -1.8472,-0.80206 -6.95854,-3.04527 -11.35854,-4.98491 -4.4,-1.93963 -10.17565,-4.36519 -12.83478,-5.39012 -7.05088,-2.71769 -9.66948,-7.12113 -13.26103,-22.29976 -1.24991,-5.28237 -1.42146,-9.88254 -0.87874,-23.56376 0.67262,-16.95604 0.68412,-17.02099 4.44812,-25.11883 8.08808,-17.40063 15.99444,-25.81142 28.34694,-30.15547 5.86769,-2.06351 10.19429,-2.69323 23.67949,-3.44645 20.77252,-1.16026 25.46716,-0.68149 36,3.67139 14.44283,5.96874 15.59533,4.34033 4.89826,-6.9209 -6.89012,-7.25351 -11.74005,-10.34224 -21.07882,-13.42431 -1.94065,-0.64048 -5.28142,-2.64756 -7.42395,-4.46019 -2.14252,-1.81262 -6.96283,-5.11903 -10.71181,-7.34756 -11.15136,-6.62879 -26.48247,-26.60425 -33.37372,-43.48382 -6.20662,-15.20265 -6.54604,-21.33978 -2.34023,-42.31386 1.76462,-8.8 4.29331,-20.21176 5.61933,-25.359476 2.03823,-7.912589 2.41463,-11.777355 2.4348,-25 C 134.03698,64.538236 134.48477,55.7 135.01894,53.5 c 0.53418,-2.2 1.61175,-6.977655 2.39462,-10.617011 3.81187,-17.720532 14.08846,-29.17501 33.08644,-36.8787626 7.06261,-2.8639142 9.40609,-3.3000412 20,-3.7220487 13.01012,-0.5182569 27.00004,1.6562559 35.71648,5.5515648 2.35593,1.0528506 5.88614,2.4278555 7.8449,3.0555665 2.87371,0.92092 12.75255,8.130517 16.18404,11.811148 4.66435,5.002991 11.40713,14.369845 14.33252,19.910272 2.00067,3.789099 4.04151,7.388297 4.5352,7.998217 1.39834,1.72755 3.78974,10.106892 5.39136,18.891054 2.84737,15.616499 1.67905,34.29042 -3.31592,53 -2.37203,8.88488 -3.97069,11.92258 -9.89749,18.80683 -8.62739,10.02108 -20.79559,16.40428 -34.54109,18.11955 l -5.75,0.71753 v 4.31503 c 0,3.30273 0.80463,5.45589 3.42981,9.17805 1.88639,2.67465 5.08707,7.56109 7.11261,10.85874 2.02555,3.29765 5.37214,8.02265 7.43688,10.5 2.06474,2.47735 5.38383,7.06198 7.37577,10.18807 1.99193,3.1261 4.12092,5.99235 4.73109,6.36945 1.93525,1.19605 6.91369,9.75494 6.91751,11.89253 0.002,1.12982 1.33654,5.42922 2.96558,9.55422 2.11447,5.35414 2.97176,9.25318 2.99633,13.62756 0.0205,3.65593 0.53862,6.53635 1.28442,7.14104 0.6875,0.55742 4.625,2.71692 8.75,4.79888 4.125,2.08196 9.91994,5.61849 12.87764,7.85895 2.9577,2.24046 6.22618,4.69492 7.26328,5.45436 1.6179,1.18473 2.50351,1.14481 6.23726,-0.28112 2.3934,-0.91404 6.65906,-1.93518 9.47925,-2.26919 5.90348,-0.69918 19.66103,1.21644 22.71591,3.163 1.14033,0.72661 3.11937,1.47533 4.39787,1.66382 1.27849,0.18848 2.81573,1.1263 3.41609,2.08404 1.55948,2.48784 -3.05028,6.8038 -12.30284,11.51872 -4.90783,2.50093 -8.71883,5.34341 -11.39098,8.49607 -3.84207,4.53297 -3.96866,4.89995 -2.92914,8.4908 3.89119,13.4415 4.29399,27.32116 0.90166,31.06964 -2.03578,2.24952 -11.81591,7.19636 -19.166,9.69427 -10.40419,3.53584 -47.74372,4.28668 -81.5,1.63883 -8.80324,-0.69053 -12.08625,-0.60405 -14,0.36877 -1.375,0.69896 -8.95816,2.89324 -16.85147,4.87619 -14.75605,3.70701 -22.90566,4.34012 -33.28999,2.58618 z M 183.5,348.97209 c 13.28711,-3.34672 29.58307,-9.5902 36.5,-13.98425 2.475,-1.57228 6.75,-3.81938 9.5,-4.99357 5.73397,-2.44827 14.73748,-8.12444 18.72433,-11.80454 3.21323,-2.96601 8.53967,-15.21635 9.79706,-22.53236 0.48752,-2.83655 1.62411,-8.53237 2.52577,-12.65737 1.20966,-5.5341 1.48627,-10.12121 1.05529,-17.5 -1.07564,-18.41582 -2.27213,-27.96951 -4.00763,-32 -0.94731,-2.2 -2.63332,-6.69098 -3.74669,-9.97995 -1.92021,-5.67243 -5.37473,-11.00219 -15.24468,-23.52005 -2.38512,-3.025 -6.78599,-9.1 -9.77972,-13.5 -2.99373,-4.4 -6.65377,-9.7503 -8.13344,-11.88955 C 219.10781,172.32255 218,169.37081 218,167.44224 c 0,-4.92469 -0.876,-6.32835 -4.35696,-6.98138 -5.241,-0.98322 -8.44064,0.8527 -9.13915,5.24394 -2.28416,14.35971 -2.85561,16.2952 -4.81118,16.2952 -2.07792,0 -2.07829,-0.0548 -0.10794,-15.65178 0.78924,-6.24758 0.11807,-6.77351 -10.71833,-8.39881 -4.05154,-0.60767 -9.27405,-2.00766 -11.60558,-3.11108 -4.38312,-2.07437 -12.98051,-11.12446 -17.58918,-18.51535 -1.43255,-2.29736 -3.95649,-5.71671 -5.60877,-7.59855 -4.92826,-5.61298 -7.29405,-12.21395 -7.82127,-21.82271 C 145.55381,94.365611 147.2763,89.332048 158.52727,71 c 5.37753,-8.762009 8.07352,-14.125234 9.88926,-19.673039 1.93025,-5.897685 4.19079,-8.513839 5.16436,-5.976773 1.06194,2.767376 -4.55992,17.251574 -9.54855,24.600949 -5.67994,8.367824 -12.04562,20.211038 -13.08656,24.34727 -3.78262,15.030433 2.36804,29.280103 21.57172,49.976723 6.27145,6.75901 9.03398,8.07414 22.56085,10.74031 11.36505,2.24008 17.72529,2.44197 29.94788,0.95063 14.64105,-1.78642 21.74093,-4.9266 31.25039,-13.82159 6.00751,-5.61932 9.73395,-12.76191 12.85754,-24.64448 2.10893,-8.02266 2.36584,-11.17186 2.36584,-29 0,-20.350855 -1.10043,-28.289049 -4.91655,-35.466544 -0.74084,-1.393401 -2.69533,-5.096038 -4.3433,-8.228083 -2.90226,-5.515867 -3.93157,-7.00595 -11.09592,-16.063045 C 247.10968,23.641902 239.86829,17.478958 235.02971,15.027722 233.08837,14.044233 227.225,11.754374 222,9.9391455 213.11562,6.8526055 211.46316,6.6121633 196.5,6.2287605 180.6589,5.822862 180.41855,5.849058 172.29802,8.866536 c -14.51564,5.393819 -22.04847,11.678606 -27.28708,22.76614 -5.09555,10.784741 -7.00757,21.291359 -7.03474,38.656049 -0.0181,11.595324 -0.49625,17.231854 -2.01126,23.711275 -3.77043,16.12541 -7.94173,35.96731 -9.01357,42.87547 -1.96323,12.65336 2.70093,28.33251 13.11485,44.08716 6.47253,9.79193 19.78446,23.97708 24.93378,26.56936 1.925,0.96908 5.16659,3.18359 7.20353,4.92114 4.13894,3.53058 5.16375,4.0908 15.78572,8.62926 7.95131,3.39737 12.31841,7.24393 22.61297,19.91761 2.9039,3.575 5.91719,7.22334 6.69621,8.10741 4.96359,5.63299 6.07451,20.47301 2.31262,30.89259 -7.45224,20.64102 -7.56277,20.83003 -14.00408,23.94822 -5.22227,2.52806 -22.41327,6.10783 -26.71622,5.56326 -1.79238,-0.22683 -10.26354,-0.50275 -18.82481,-0.61315 C 135.12751,308.57675 132.5,306.63663 132.5,288.54398 c 0,-10.1902 0.20816,-11.39805 2.69256,-15.62404 2.04102,-3.47178 4.18269,-5.37429 8.85061,-7.86227 6.05646,-3.22805 6.31725,-3.27257 15.80744,-2.69842 16.58167,1.00318 27.79653,3.86961 35.49352,9.07184 1.56427,1.05726 6.48152,3.20945 10.92722,4.78266 10.66035,3.7724 11.22865,3.29149 11.22865,-9.50186 0,-12.91956 -1.59565,-15.52889 -11.00312,-17.99314 -3.7991,-0.99516 -8.29207,-2.66512 -9.98437,-3.71102 -6.22191,-3.84535 -13.82746,-4.53524 -39.51251,-3.58416 -21.46216,0.79472 -31.73043,6.115 -40.67807,21.07643 -7.8484,13.1234 -10.10562,24.03098 -9.6227,46.5 0.19803,9.21366 3.82878,23.71599 6.74391,26.93717 1.914,2.11495 29.24452,14.10915 34.48575,15.13433 1.96411,0.38417 8.07111,0.74904 13.57111,0.81081 8.07351,0.0907 12.31179,-0.46998 22,-2.91022 z m 67.02514,-237.93141 c -0.7192,-1.16369 1.42682,-4.80827 3.2412,-5.50451 1.84138,-0.7066 2.60168,1.90766 1.27548,4.38569 -1.16482,2.17649 -3.50478,2.75611 -4.51668,1.11882 z m -69.4794,-12.485563 c -1.48631,-1.790897 -0.61328,-4.910751 1.20479,-4.305409 1.58847,0.528898 2.23014,3.669623 1.00087,4.898893 -0.58155,0.58155 -1.41704,0.356741 -2.20566,-0.593484 z M 278.3305,344.51881 c 12.50875,-0.72104 14.56346,-1.11464 21.5,-4.11849 4.21822,-1.8267 9.00924,-4.39195 10.6467,-5.70056 2.82107,-2.25453 2.97719,-2.76791 2.97702,-9.78953 -1.7e-4,-6.68683 -1.56911,-16.66908 -2.97833,-18.94923 -0.30059,-0.48638 -3.34314,0.62545 -6.76121,2.47074 -3.41808,1.84528 -8.68968,3.90936 -11.71468,4.58683 -3.025,0.67747 -7.85823,2.12597 -10.74051,3.21889 -3.89923,1.47853 -7.99433,2.02854 -16,2.14894 l -10.75949,0.16181 -7.5,5.635 c -4.125,3.09926 -11.325,7.46161 -16,9.69411 -4.675,2.2325 -10.24263,5.13058 -12.37252,6.44017 l -3.87252,2.38106 3.87252,0.7743 c 3.52094,0.70399 35.68142,2.15565 42.87252,1.93517 1.65,-0.0506 9.22372,-0.45073 16.8305,-0.88921 z m -7.76416,-30.55471 c 11.79449,-2.05909 26.03696,-6.20772 30.93366,-9.01054 2.75,-1.57408 8.06406,-6.04568 11.80903,-9.93691 4.74663,-4.93201 8.71258,-7.97434 13.09364,-10.04429 7.63762,-3.6086 10.30654,-6.13888 8.26361,-7.83436 -3.16115,-2.62352 -11.15046,-4.05677 -21.1108,-3.78721 -9.14951,0.24763 -12.10523,0.87992 -16.55548,3.54157 -0.825,0.49343 -3.75,1.34814 -6.5,1.89937 -8.04354,1.61231 -26.33087,8.32514 -26.92951,9.88517 -0.30223,0.78759 -1.00545,4.28607 -1.56271,7.7744 -0.55726,3.48832 -1.9021,8.30132 -2.98853,10.69555 -3.03294,6.68387 -3.06231,6.63412 4.54709,7.70332 0.58649,0.0824 3.73649,-0.31633 7,-0.88607 z M 175.9239,302.94075 c -1.33314,-1.00661 -4.5614,-2.83199 -7.1739,-4.05641 -4.47929,-2.09934 -5.89338,-4.05966 -3.8427,-5.32705 0.49902,-0.30841 5.1145,1.47327 10.25664,3.95928 11.24476,5.43637 17.41338,6.44885 24.64871,4.04566 2.7908,-0.92696 6.16138,-2.54056 7.49016,-3.58578 2.27694,-1.79104 5.59125,-10.41572 4.4436,-11.56337 -0.29126,-0.29126 -3.05073,-0.72122 -6.13215,-0.95547 -6.18143,-0.4699 -12.00839,-2.55788 -15.10061,-5.41102 C 189.40614,279.02471 182.65,275.259 175.5,271.67833 l -13,-6.51029 -6.5,0.72588 c -7.85448,0.87714 -13.7234,3.80271 -16.75,8.34962 -1.77869,2.67216 -2.23471,4.72882 -2.177,9.81834 0.0983,8.6679 1.31694,16.72806 2.74512,18.15624 1.29877,1.29877 27.03361,3.50009 34.10578,2.91736 l 4.4239,-0.36453 z m 30.85781,-22.09562 c -0.21172,-0.63517 -2.16172,-1.68124 -4.33333,-2.32459 -2.17161,-0.64336 -5.91229,-2.41177 -8.31263,-3.92981 -4.2667,-2.69837 -11.2705,-5.59444 -13.51148,-5.58699 -0.61835,0.002 0.45073,0.9584 2.37573,2.12522 1.925,1.16682 5.85029,3.67579 8.72286,5.57549 2.87258,1.8997 6.47258,3.82967 8,4.28882 4.14392,1.24568 7.49998,1.17525 7.05885,-0.14814 z M 278,278.03216 c 3.575,-1.48995 7.7375,-3.01528 9.25,-3.38963 1.5125,-0.37435 2.75,-1.01314 2.75,-1.41953 0,-1.61876 -22.52883,-15.02751 -23.54361,-14.01272 -0.27593,0.27593 -0.72395,19.40803 -0.51656,22.05877 0.0856,1.0944 4.52926,-0.0983 12.06017,-3.23689 z"
           id="path3811"
           inkscape:connector-curvature="0" />
      </g>
    </g>
    <path
       style="fill:#ffffff;fill-opacity:0.03333334;stroke:none;stroke-width:1px;stroke-linecap:butt;stroke-linejoin:miter;stroke-opacity:1"
       d="m 229.51032,-67.336127 c 0,0 16.54895,8.952707 22.24612,29.571062 5.69718,20.618355 6.51106,43.9496562 -1.89905,64.839305 -8.41012,20.88964 -24.41648,28.75717 -24.41648,28.75717 0,0 49.91812,-86.271533 4.06941,-123.167537 z"
       id="path4719"
       inkscape:connector-curvature="0" />
  </g>
  <g
     id="g3795"
     transform="translate(60.392405,159.18819)" />
</svg>
